<?xml version='1.0' encoding='utf-8'?>
<svg xmlns="http://www.w3.org/2000/svg" id="Ebene_1" data-name="Ebene 1" viewBox="0 0 800 800"><defs><clipPath id="clip-path"><circle cx="400" cy="400" r="400" style="fill:none"/></clipPath><linearGradient id="Unbenannter_Verlauf_12" x1="396.3733" y1="379.04" x2="144.9242" y2="630.4892" gradientUnits="userSpaceOnUse"><stop offset="0"/><stop offset="1" stop-opacity="0"/></linearGradient></defs><title>folder</title><circle cx="400" cy="400" r="400" style="fill:#1c8adb"/><g style="clip-path:url(#clip-path)"><path d="M269.2987,787.9653,531.6113,525.6527,586.5828,353.28a17.0311,17.0311,0,0,0-16.2259-22.2057H519.9608l11.65-9.1494V308.2a11.2843,11.2843,0,0,0-11.2844-11.2844H370.2757a11.2843,11.2843,0,0,1-11.2842-11.2844,11.2845,11.2845,0,0,0-11.2845-11.2844H223.8842a11.2681,11.2681,0,0,0-9.2991,4.8976L5.915,487.9149C36.3534,635.8087,120.897,738.5391,269.2987,787.9653Z" style="opacity:0.42;fill:url(#Unbenannter_Verlauf_12)"/><path d="M570.3569,331.074H287.0976A17.0311,17.0311,0,0,0,270.8717,342.93L230.8989,468.2727V292.6462H341.5326a29.6373,29.6373,0,0,0,28.7431,22.5688H513.3124v6.71h18.2989V308.2a11.2843,11.2843,0,0,0-11.2844-11.2844H370.2757a11.2843,11.2843,0,0,1-11.2843-11.2844,11.2845,11.2845,0,0,0-11.2845-11.2844H223.8842A11.2843,11.2843,0,0,0,212.6,285.6316V525.6528H531.6113L586.5828,353.28A17.0311,17.0311,0,0,0,570.3569,331.074Z" style="fill:#fff"/></g></svg>