<?xml version='1.0' encoding='utf-8'?>
<svg xmlns="http://www.w3.org/2000/svg" id="Layer_1" data-name="Layer 1" viewBox="0 0 100 100"><defs><style>.cls-1{fill:#231f20;}</style></defs><path class="cls-1" d="M81.22,86.43H18.34a5,5,0,0,1-5-5V31.5a3,3,0,0,1,3-3H32A5,5,0,0,1,35.5,30l9.17,9.18a1,1,0,0,0,.71.29H81.22a5,5,0,0,1,5,5v37A5,5,0,0,1,81.22,86.43ZM16.34,30.5a1,1,0,0,0-1,1V81.43a3,3,0,0,0,3,3H81.22a3,3,0,0,0,3-3v-37a3,3,0,0,0-3-3H45.38a3,3,0,0,1-2.12-.88l-9.18-9.17A3,3,0,0,0,32,30.5Z"/><path class="cls-1" d="M79.63,40.43h-2V34.88a1,1,0,0,0-1-1H37v-2H76.63a3,3,0,0,1,3,3Z"/><path class="cls-1" d="M75.65,37H63.92a1,1,0,0,1,0-2H75.65a1,1,0,0,1,0,2Z"/><path class="cls-1" d="M30.41,35.51H18.68a1,1,0,0,1,0-2H30.41a1,1,0,1,1,0,2Z"/><path class="cls-1" d="M30.41,39.29H18.68a1,1,0,0,1,0-2H30.41a1,1,0,1,1,0,2Z"/><path class="cls-1" d="M79.27,47.86H71.61a1,1,0,0,1,0-2h7.66a1,1,0,0,1,0,2Z"/><path class="cls-1" d="M79.27,80.32H71.61a1,1,0,0,1,0-2h7.66a1,1,0,0,1,0,2Z"/></svg>