<?xml version="1.0" encoding="UTF-8"?>
<svg width="500" height="500" version="1.1" viewBox="0 0 500.00001 500.00001" xmlns="http://www.w3.org/2000/svg">
 <g transform="translate(0 -552.36)">
  <path d="m380.24 566.95a62.704 62.704 0 0 0 -62.704 62.704 62.704 62.704 0 0 0 1.956 15.302l-173.93 100.42a62.704 62.704 0 0 0 -43.011 -17.184 62.704 62.704 0 0 0 -62.704 62.704 62.704 62.704 0 0 0 62.704 62.704 62.704 62.704 0 0 0 43.05 -17.163l173.91 100.41a62.704 62.704 0 0 0 -1.9735 15.291 62.704 62.704 0 0 0 62.704 62.704 62.704 62.704 0 0 0 62.704 -62.704 62.704 62.704 0 0 0 -62.704 -62.704 62.704 62.704 0 0 0 -42.42 16.61l-174.32-100.66a62.704 62.704 0 0 0 1.7706 -14.493 62.704 62.704 0 0 0 -1.774 -14.493l174.35-100.66a62.704 62.704 0 0 0 42.406 16.621 62.704 62.704 0 0 0 62.704 -62.704 62.704 62.704 0 0 0 -62.704 -62.704z" fill="#00f" fill-rule="evenodd"/>
 </g>
</svg>
